:version 1.10
:name ASF
:units
  mass 1
  length 1
  angle deg
:documentation
  ASF file generated by Kaydara
:root
  axis xyz
  order  tx ty tz rx ry rz
  position 0 0 0
  orientation 0 0 0
:bonedata
  begin
    id 1
    name RightUpLegDummy
    direction -0.718183 -0.695806 0.00816078
    length 4.904
    axis 0 0 0 xyz
  end
  begin
    id 2
    name RightUpLeg
    direction 3.53373e-006 -0.995788 0.0916898
    length 17.4976
    axis -3.49089 -0.000906625 0.000286804 xyz
    dof rx ry rz
  end
  begin
    id 3
    name RightLeg
    direction 0.00371092 -0.995096 -0.0988419
    length 16.5821
    axis 3.68512 0.0193738 -0.131023 xyz
    dof rx ry rz
  end
  begin
    id 4
    name RightFoot
    direction 0.00079151 -0.46099 0.887405
    length 3.77069
    axis 4.81691e-005 -0.120479 -0.188788 xyz
    dof rx ry rz
  end
  begin
    id 5
    name RightToes
    direction 0 0 0
    length 0
    axis 0 0 0 xyz
    dof rx ry rz
  end
  begin
    id 6
    name SpineDummy
    direction 8.3039e-015 1 4.57515e-016
    length 4.6813
    axis 0 0 0 xyz
  end
  begin
    id 7
    name Spine
    direction -3.15643e-008 0.999988 0.00495137
    length 10.1015
    axis -0.001389 0.000121418 2.40972e-006 xyz
    dof rx ry rz
  end
  begin
    id 8
    name Spine1
    direction 0 0 0
    length 0
    axis -0.001389 0.000121451 1.30017e-006 xyz
    dof rx ry rz
  end
  begin
    id 9
    name HEadDummy
    direction -1.99912e-008 0.999999 0.00127422
    length 3.43865
    axis -0.001389 0.000121451 1.30017e-006 xyz
  end
  begin
    id 10
    name HEad
    direction 0 0 0
    length 0
    axis 0 0 0 xyz
    dof rx ry rz
  end
  begin
    id 11
    name LeftShoulder1Dummy
    direction 0.998891 -0.0402509 -0.0244456
    length 3.5433
    axis -0.001389 0.000121451 1.30017e-006 xyz
  end
  begin
    id 12
    name LeftShoulder1
    direction 0.99951 -0.000327763 0.0313091
    length 4.05031
    axis -0.001389 0.000121451 1.30017e-006 xyz
    dof rx ry rz
  end
  begin
    id 13
    name LeftArm
    direction 0.998561 -0.00100056 -0.0536182
    length 10.3537
    axis -23.1894 0.134784 0.967509 xyz
    dof rx ry rz
  end
  begin
    id 14
    name LeftForeArm
    direction 0.998903 0.00866432 0.046012
    length 8.70632
    axis -9.91835 -0.06569 -0.177794 xyz
    dof rx ry rz
  end
  begin
    id 15
    name LeftHand
    direction 0 0 0
    length 0
    axis 0 0 0 xyz
    dof rx ry rz
  end
  begin
    id 16
    name RightShoulderDummy
    direction -0.998891 -0.0402509 -0.0244414
    length 3.5433
    axis -0.001389 0.000121451 1.30017e-006 xyz
  end
  begin
    id 17
    name RightShoulder
    direction -0.99951 -0.000327807 0.0313133
    length 4.05031
    axis 0.215806 0.000203643 -0.0068026 xyz
    dof rx ry rz
  end
  begin
    id 18
    name RightArm
    direction -0.998573 -0.000999564 -0.053403
    length 10.3947
    axis -23.2009 -0.134239 -0.964101 xyz
    dof rx ry rz
  end
  begin
    id 19
    name RightForeArm
    direction -0.998898 0.00868028 0.0461306
    length 8.68355
    axis -9.92322 0.0658061 0.178868 xyz
    dof rx ry rz
  end
  begin
    id 20
    name RightHand
    direction 0 0 0
    length 0
    axis 0 0 0 xyz
    dof rx ry rz
  end
  begin
    id 21
    name LeftUpLegDummy
    direction 0.718183 -0.695806 0.00816078
    length 4.904
    axis 0 0 0 xyz
  end
  begin
    id 22
    name LeftUpLeg
    direction -6.81752e-006 -0.995793 0.0916337
    length 17.4976
    axis -3.48766 0.00143442 -0.000524262 xyz
    dof rx ry rz
  end
  begin
    id 23
    name LeftLeg
    direction -0.00601358 -0.995091 -0.0987824
    length 16.5821
    axis 3.68178 -0.00654042 -0.000285133 xyz
    dof rx ry rz
  end
  begin
    id 24
    name LeftFoot
    direction -0.00417578 -0.460984 0.887399
    length 3.77069
    axis 1.87233e-006 4.66016e-005 -8.6538e-006 xyz
    dof rx ry rz
  end
  begin
    id 25
    name LeftToes
    direction 0 0 0
    length 0
    axis 0 0 0 xyz
    dof rx ry rz
  end
:hierarchy
  begin
    root RightUpLegDummy SpineDummy LeftUpLegDummy
    RightUpLegDummy RightUpLeg
    RightUpLeg RightLeg
    RightLeg RightFoot
    RightFoot RightToes
    SpineDummy Spine
    Spine Spine1
    Spine1 HEadDummy LeftShoulder1Dummy RightShoulderDummy
    HEadDummy HEad
    LeftShoulder1Dummy LeftShoulder1
    LeftShoulder1 LeftArm
    LeftArm LeftForeArm
    LeftForeArm LeftHand
    RightShoulderDummy RightShoulder
    RightShoulder RightArm
    RightArm RightForeArm
    RightForeArm RightHand
    LeftUpLegDummy LeftUpLeg
    LeftUpLeg LeftLeg
    LeftLeg LeftFoot
    LeftFoot LeftToes
  end

:SAMPLES-PER-SECOND 30
:FULLY-SPECIFIED
:DEGREES
175
root  -10.163 40.5533 -5.09288 -30.1242 -83.6642 26.7172
RightUpLeg  5.82957 -11.152 -5.88292
RightLeg  11.6048 -14.3692 3.09139
RightFoot  -11.4959 -0.0793862 -1.22578
RightToes  0.000481921 0.542163 -0.142578
Spine  1.61237 0.738005 8.17685
Spine1  15.4269 3.11616 -6.51692
HEad  39.5782 -0.873269 -9.66206
LeftShoulder1  9.32936 -13.141 -48.9336
LeftArm  -8.04444 24.0693 -23.7206
LeftForeArm  36.8516 -28.3394 -4.13464
LeftHand  -0.25398 0.0180481 5.50724
RightShoulder  5.0772 8.40108 36.6493
RightArm  6.02724 6.17548 37.8175
RightForeArm  7.40415 17.9495 5.76026
RightHand  -1.01273 3.12368 -14.0393
LeftUpLeg  -13.4093 4.07039 2.92478
LeftLeg  0.284328 11.0581 -4.92968
LeftFoot  2.12131 0.885416 -7.60664
LeftToes  1.06246e-005 4.65868e-005 -8.65513e-006
176
root  -10.6784 40.4892 -4.91408 -30.9161 -84.2916 27.5038
RightUpLeg  6.65769 -11.1793 -6.06368
RightLeg  11.6529 -13.5994 3.0959
RightFoot  -12.1389 -0.0870451 -0.70608
RightToes  0.000481921 0.542163 -0.142578
Spine  1.55366 0.701044 7.94297
Spine1  15.3586 3.08447 -6.5179
HEad  40.3101 -0.495761 -11.5491
LeftShoulder1  9.29477 -13.0846 -48.9176
LeftArm  -8.00209 24.1434 -23.3104
LeftForeArm  36.7536 -27.8047 -4.02316
LeftHand  -0.25398 0.0180481 5.50724
RightShoulder  5.16177 8.49259 37.0176
RightArm  6.1267 4.41454 38.6561
RightForeArm  8.56106 17.4835 5.90503
RightHand  -1.00307 3.11734 -13.9191
LeftUpLeg  -13.328 4.33504 3.21431
LeftLeg  0.0890252 12.5727 -5.06187
LeftFoot  2.93424 0.839864 -6.84209
LeftToes  1.06246e-005 4.65868e-005 -8.65513e-006
177
root  -11.2503 40.411 -4.69268 -30.9455 -84.8749 27.6125
RightUpLeg  7.4808 -11.1974 -6.26275
RightLeg  11.7357 -12.9133 3.07831
RightFoot  -12.7992 -0.0877532 -0.0945506
RightToes  0.000481921 0.542163 -0.142578
Spine  1.31876 0.581193 7.66784
Spine1  15.2294 2.94579 -6.48001
HEad  41.1418 -0.447724 -13.3465
LeftShoulder1  9.20764 -12.9544 -48.8412
LeftArm  -7.68216 24.3022 -22.8258
LeftForeArm  36.4719 -27.2023 -3.90758
LeftHand  -0.25398 0.0180481 5.50724
RightShoulder  5.25964 8.5787 37.5052
RightArm  6.35397 2.53762 39.1961
RightForeArm  10.086 16.6323 6.22899
RightHand  -1.01944 3.25301 -13.9305
LeftUpLeg  -13.0854 4.71725 3.38103
LeftLeg  0.394532 14.1809 -4.97108
LeftFoot  3.47314 0.786934 -6.20562
LeftToes  1.06246e-005 4.65868e-005 -8.65513e-006
178
root  -11.8697 40.3201 -4.42004 -30.3486 -85.557 27.1083
RightUpLeg  8.38482 -11.2006 -6.48519
RightLeg  11.7599 -12.1357 3.08645
RightFoot  -13.4481 -0.0788552 0.659443
RightToes  0.000481921 0.542163 -0.142578
Spine  0.976778 0.450991 7.5262
Spine1  15.165 2.84743 -6.57857
HEad  41.8052 -0.633996 -14.7433
LeftShoulder1  9.11027 -12.8216 -48.7169
LeftArm  -7.0996 24.4494 -22.277
LeftForeArm  35.9722 -26.4916 -3.78116
LeftHand  -0.25398 0.0180481 5.50724
RightShoulder  5.31083 8.59879 37.8435
RightArm  6.67655 0.541387 39.6193
RightForeArm  11.8812 15.6069 6.65532
RightHand  -1.01046 3.21021 -13.8762
LeftUpLeg  -12.5665 5.19607 3.49991
LeftLeg  0.888391 15.894 -4.80802
LeftFoot  4.32963 0.66697 -5.04492
LeftToes  1.06246e-005 4.65868e-005 -8.65513e-006
179
root  -12.5251 40.2379 -4.08765 -32.7771 -86.4059 29.6647
RightUpLeg  9.3605 -11.2682 -6.96319
RightLeg  11.6096 -11.0113 3.11348
RightFoot  -13.9615 -0.0599924 1.51228
RightToes  0.000481921 0.542163 -0.142578
Spine  0.502483 0.40545 7.3452
Spine1  15.278 2.89815 -6.85309
HEad  42.1598 -0.899735 -15.7375
LeftShoulder1  9.08882 -12.7798 -48.7265
LeftArm  -6.46892 24.6286 -21.6043
LeftForeArm  35.4007 -25.7056 -3.64312
LeftHand  -0.25398 0.0180481 5.50724
RightShoulder  5.31678 8.59712 37.8966
RightArm  7.08597 -1.56897 39.8595
RightForeArm  14.3229 14.6454 7.04914
RightHand  -0.918553 2.79484 -13.2442
LeftUpLeg  -11.9227 5.43471 3.47193
LeftLeg  1.19996 17.786 -4.78968
LeftFoot  6.37615 0.323477 -2.36571
LeftToes  1.06246e-005 4.65868e-005 -8.65513e-006
180
root  -13.2086 40.1918 -3.71367 -43.1262 -86.9973 40.1373
RightUpLeg  10.3879 -11.5008 -7.99937
RightLeg  11.4086 -9.67417 2.9887
RightFoot  -14.202 -0.0354941 2.4315
RightToes  0.000481921 0.542163 -0.142578
Spine  -0.0230396 0.361521 6.39129
Spine1  15.5075 2.85965 -6.83042
HEad  42.3603 -1.0312 -16.4646
LeftShoulder1  9.13783 -12.7802 -48.9893
LeftArm  -5.74053 24.6754 -20.7955
LeftForeArm  34.605 -24.6347 -3.4545
LeftHand  -0.25398 0.0180481 5.50724
RightShoulder  5.34962 8.65489 37.9555
RightArm  7.33 -3.53128 39.5619
RightForeArm  17.856 13.6513 7.39788
RightHand  -0.786681 2.32166 -12.0522
LeftUpLeg  -11.345 5.32453 2.98528
LeftLeg  1.50885 19.3116 -4.90793
LeftFoot  8.81255 -0.259962 1.17135
LeftToes  1.06246e-005 4.65868e-005 -8.65513e-006
181
root  -13.8994 40.1997 -3.33018 -56.1942 -86.772 53.2123
RightUpLeg  11.4685 -11.9393 -9.59304
RightLeg  11.4135 -8.47389 2.62115
RightFoot  -14.0407 -0.00994987 3.62149
RightToes  0.000481921 0.542163 -0.142578
Spine  -0.369994 0.139262 4.28902
Spine1  15.7201 2.42049 -6.08338
HEad  42.6817 -0.91009 -16.9622
LeftShoulder1  9.17659 -12.7208 -49.3771
LeftArm  -4.62916 24.069 -19.9537
LeftForeArm  33.3931 -22.7435 -3.271
LeftHand  -0.25398 0.0180481 5.50724
RightShoulder  5.41773 8.72697 38.242
RightArm  6.75111 -5.14839 38.7302
RightForeArm  21.9451 12.4634 7.69376
RightHand  -0.695878 2.11816 -10.9677
LeftUpLeg  -10.7597 5.20907 1.9345
LeftLeg  2.23719 19.7984 -4.95766
LeftFoot  9.56472 -0.687528 3.42663
LeftToes  1.06246e-005 4.65868e-005 -8.65513e-006
182
root  -14.5722 40.256 -2.93609 -60.9891 -86.0939 57.8892
RightUpLeg  12.4624 -12.6826 -11.3894
RightLeg  11.8672 -7.20691 2.16513
RightFoot  -13.3261 0.000910459 5.31063
RightToes  0.000481921 0.542163 -0.142578
Spine  -0.428814 -0.202615 1.99193
Spine1  15.8343 1.77359 -5.07699
HEad  43.2754 -0.636382 -17.1969
LeftShoulder1  9.19897 -12.6632 -49.6727
LeftArm  -3.71401 22.4996 -19.1372
LeftForeArm  32.7968 -19.7431 -3.55347
LeftHand  -0.25398 0.0180481 5.50724
RightShoulder  5.42921 8.69568 38.4412
RightArm  4.99667 -6.75891 37.9481
RightForeArm  24.9807 11.3845 7.76089
RightHand  -0.632868 1.86759 -10.313
LeftUpLeg  -10.0107 5.40061 0.725319
LeftLeg  3.35901 19.4416 -4.82889
LeftFoot  8.05949 -0.66759 3.605
LeftToes  1.06246e-005 4.65868e-005 -8.65513e-006
